<svg xmlns="http://www.w3.org/2000/svg" viewBox="0 0 32 32" version="1.1">
   <path d="M 32,25.333333 32,28 q 0,0.541666 -0.395833,0.9375 -0.395834,0.395833 -0.9375,0.395833 l -29.3333337,0 q -0.54166663,0 -0.93749997,-0.395833 Q 0,28.541666 0,28 L 0,25.333333 Q 0,24.791666 0.39583333,24.395833 0.79166667,24 1.3333333,24 l 29.3333337,0 q 0.541666,0 0.9375,0.395833 Q 32,24.791666 32,25.333333 Z m 0,-10.666667 0,2.666667 q 0,0.541667 -0.395833,0.9375 -0.395834,0.395833 -0.9375,0.395833 l -29.3333337,0 q -0.54166663,0 -0.93749997,-0.395833 Q 0,17.875 0,17.333333 L 0,14.666666 Q 0,14.125 0.39583333,13.729166 0.79166667,13.333333 1.3333333,13.333333 l 29.3333337,0 q 0.541666,0 0.9375,0.395833 Q 32,14.125 32,14.666666 Z m 0,-10.6666659 0,2.6666666 q 0,0.5416667 -0.395833,0.9374997 -0.395834,0.395834 -0.9375,0.395834 l -29.3333337,0 q -0.54166663,0 -0.93749997,-0.395834 Q 0,7.2083334 0,6.6666667 L 0,4.0000001 Q 0,3.4583334 0.39583333,3.0625001 0.79166667,2.6666667 1.3333333,2.6666667 l 29.3333337,0 q 0.541666,0 0.9375,0.3958334 Q 32,3.4583334 32,4.0000001 Z"/>
</svg>