<svg xmlns="http://www.w3.org/2000/svg" viewBox="0 0 32 32" version="1.1">
   <path d="M 16.285714,30.285714 Q 16.285714,30 16,30 q -1.053572,0 -1.8125,-0.758929 -0.758929,-0.758928 -0.758929,-1.8125 0,-0.285714 -0.285714,-0.285714 -0.285714,0 -0.285714,0.285714 0,1.303572 0.919643,2.223215 0.919642,0.919643 2.223214,0.919643 0.285714,0 0.285714,-0.285715 z m -11.892857,-5.142857 23.214286,0 q -4.75,-5.357143 -4.75,-14.857143 0,-0.910714 -0.428572,-1.8749997 Q 22,7.4464286 21.196428,6.5714286 q -0.803571,-0.875 -2.169642,-1.4375 -1.366072,-0.5625 -3.026786,-0.5625 -1.660714,0 -3.026786,0.5625 -1.366071,0.5625 -2.169643,1.4375 -0.8035711,0.875 -1.2321426,1.8392857 Q 9.142857,9.375 9.142857,10.285714 q 0,9.5 -4.75,14.857143 z m 26.464286,0 q 0,0.928572 -0.678572,1.607143 Q 29.5,27.428571 28.571428,27.428571 l -8,0 q 0,1.892858 -1.339285,3.232143 Q 17.892857,32 16,32 14.107143,32 12.767857,30.660714 11.428571,29.321429 11.428571,27.428571 l -7.9999997,0 q -0.9285714,0 -1.6071429,-0.678571 -0.6785714,-0.678571 -0.6785714,-1.607143 0.8928571,-0.75 1.625,-1.571428 Q 3.4999999,22.75 4.2857141,21.4375 5.0714284,20.125 5.6160713,18.607143 q 0.5446428,-1.517857 0.8928571,-3.678572 0.3482143,-2.160714 0.3482143,-4.642857 0,-2.7142854 2.0892857,-5.0446426 Q 11.035714,2.9107143 14.428571,2.4107143 14.285714,2.0714286 14.285714,1.7142857 14.285714,1 14.785714,0.5 15.285714,0 16,0 q 0.714286,0 1.214286,0.5 0.5,0.5 0.5,1.2142857 0,0.3571429 -0.142858,0.6964286 3.392858,0.5 5.482143,2.8303571 2.089286,2.3303572 2.089286,5.0446426 0,2.482143 0.348214,4.642857 0.348215,2.160715 0.892857,3.678572 0.544643,1.517857 1.330358,2.830357 0.785714,1.3125 1.517857,2.133929 0.732143,0.821428 1.625,1.571428 z"/>
</svg>