<svg xmlns="http://www.w3.org/2000/svg" viewBox="0 0 32 32" version="1.1">
   <path d="m 27.093205,17.885749 0,6.119062 q 0,2.289838 -1.625977,3.915815 -1.625977,1.625977 -3.915815,1.625977 l -16.0096211,0 q -2.2898376,0 -3.9158148,-1.625977 Q 0,26.294649 0,24.004811 L 0,7.9951896 Q 0,5.7053518 1.6259771,4.0793747 3.2519543,2.4533975 5.5417919,2.4533975 l 16.0096211,0 q 1.212267,0 2.251353,0.4810584 0.288635,0.1346963 0.346362,0.4425736 0.05773,0.3271197 -0.173181,0.5580277 l -0.942874,0.9428743 q -0.192424,0.1924234 -0.442574,0.1924234 -0.05773,0 -0.173181,-0.038485 -0.442574,-0.115454 -0.865905,-0.115454 l -16.0096211,0 q -1.2699939,0 -2.1743836,0.9043896 -0.9043897,0.9043897 -0.9043897,2.1743838 l 0,16.0096207 q 0,1.269994 0.9043897,2.174384 0.9043897,0.904389 2.1743836,0.904389 l 16.0096211,0 q 1.269994,0 2.174384,-0.904389 0.904389,-0.90439 0.904389,-2.174384 l 0,-4.887553 q 0,-0.25015 0.173181,-0.423331 l 1.23151,-1.231509 q 0.192423,-0.192424 0.442573,-0.192424 0.115454,0 0.230908,0.05773 0.384847,0.153939 0.384847,0.558028 z M 31.538184,8.4762476 15.874925,24.139507 q -0.461816,0.461816 -1.096813,0.461816 -0.634997,0 -1.096813,-0.461816 L 5.4070956,15.865304 q -0.461816,-0.461816 -0.461816,-1.096813 0,-0.634997 0.461816,-1.096813 l 2.1166567,-2.116656 q 0.461816,-0.461816 1.0968129,-0.461816 0.634997,0 1.096813,0.461816 L 14.778112,16.615755 27.227901,4.1659652 q 0.461816,-0.461816 1.096813,-0.461816 0.634997,0 1.096813,0.461816 l 2.116657,2.1166566 Q 32,6.7444378 32,7.3794348 32,8.0144316 31.538184,8.4762476 Z"/>
</svg>