<svg xmlns="http://www.w3.org/2000/svg" viewBox="0 0 32 32" version="1.1">
   <path d="m 32,25.750842 q 0,1.077441 -0.754209,1.83165 l -3.663299,3.663299 Q 26.828283,32 25.750842,32 24.673401,32 23.919192,31.245791 L 16,23.326599 8.0808081,31.245791 Q 7.3265993,32 6.2491582,32 5.1717172,32 4.4175084,31.245791 L 0.75420875,27.582492 Q 0,26.828283 0,25.750842 0,24.673401 0.75420875,23.919192 L 8.6734007,16 0.75420875,8.0808081 Q 0,7.3265993 0,6.2491582 0,5.1717172 0.75420875,4.4175084 L 4.4175084,0.75420875 Q 5.1717172,0 6.2491582,0 7.3265993,0 8.0808081,0.75420875 L 16,8.6734007 23.919192,0.75420875 Q 24.673401,0 25.750842,0 q 1.077441,0 1.83165,0.75420875 L 31.245791,4.4175084 Q 32,5.1717172 32,6.2491582 32,7.3265993 31.245791,8.0808081 L 23.326599,16 31.245791,23.919192 Q 32,24.673401 32,25.750842 Z"/>
</svg>