<svg xmlns="http://www.w3.org/2000/svg" viewBox="0 0 32 32" version="1.1">
   <path d="m 15.928251,22.313902 2.080718,-2.080718 -2.726458,-2.726457 -2.080717,2.080717 0,1.004485 1.721973,0 0,1.721973 1.004484,0 z M 23.820628,9.3991027 Q 23.533632,9.1121077 23.2287,9.4170427 L 16.950673,15.69507 q -0.304933,0.304932 -0.01794,0.591928 0.286996,0.286995 0.591929,-0.01794 l 6.278027,-6.2780273 q 0.304932,-0.304933 0.01794,-0.591929 z m 1.434977,10.6547093 0,3.408072 q 0,2.134529 -1.515695,3.650224 -1.515695,1.515695 -3.650224,1.515695 l -14.9237667,0 q -2.1345292,0 -3.6502242,-1.515695 Q 0,25.596413 0,23.461884 L 0,8.5381167 Q 0,6.4035875 1.5156951,4.8878924 3.0313901,3.3721973 5.1659193,3.3721973 l 14.9237667,0 q 1.130045,0 2.098655,0.4484305 0.269058,0.1255606 0.32287,0.4125561 0.05381,0.3049327 -0.161435,0.5201793 L 21.470852,5.632287 Q 21.219731,5.8834081 20.896861,5.7757848 20.484305,5.6681614 20.089686,5.6681614 l -14.9237667,0 q -1.1838565,0 -2.0269058,0.8430494 -0.8430494,0.8430489 -0.8430494,2.0269059 l 0,14.9237673 q 0,1.183856 0.8430494,2.026906 0.8430493,0.843049 2.0269058,0.843049 l 14.9237667,0 q 1.183857,0 2.026906,-0.843049 0.843049,-0.84305 0.843049,-2.026906 l 0,-2.26009 q 0,-0.233184 0.161435,-0.394619 l 1.147982,-1.147982 q 0.269059,-0.269058 0.627803,-0.12556 0.358744,0.143497 0.358744,0.520179 z m -1.721973,-13.2376683 5.16592,5.1659193 -12.053812,12.053812 -5.165919,0 0,-5.16592 z m 7.964126,2.367713 -1.650224,1.6502243 -5.16592,-5.1659196 1.650225,-1.6502242 q 0.502242,-0.5022421 1.219731,-0.5022421 0.717488,0 1.21973,0.5022421 l 2.726458,2.7264575 Q 32,7.2466367 32,7.9641257 q 0,0.717489 -0.502242,1.219731 z"/>
</svg>