<svg xmlns="http://www.w3.org/2000/svg" viewBox="0 0 32 32" version="1.1">
   <path d="M 29.714286,16 Q 27,11.785714 22.910714,9.6964285 24,11.553571 24,13.714285 24,17.017857 21.651786,19.366071 19.303571,21.714285 16,21.714285 q -3.303571,0 -5.651786,-2.348214 Q 8,17.017857 8,13.714285 8,11.553571 9.0892857,9.6964285 5,11.785714 2.2857143,16 q 2.375,3.660714 5.9553571,5.830357 Q 11.821429,24 16,24 20.178571,24 23.758929,21.830357 27.339286,19.660714 29.714286,16 Z M 16.857143,9.1428575 q 0,-0.357143 -0.25,-0.607143 -0.25,-0.25 -0.607143,-0.25 -2.232143,0 -3.830357,1.598214 -1.598214,1.5982145 -1.598214,3.8303565 0,0.357144 0.25,0.607144 0.25,0.25 0.607142,0.25 0.357143,0 0.607143,-0.25 0.25,-0.25 0.25,-0.607144 0,-1.535713 1.089286,-2.625 Q 14.464286,10 16,10 q 0.357143,0 0.607143,-0.2499995 0.25,-0.25 0.25,-0.607143 z M 32,16 q 0,0.607143 -0.357143,1.232143 -2.5,4.107142 -6.723214,6.580357 Q 20.696429,26.285714 16,26.285714 q -4.696429,0 -8.9196429,-2.482143 Q 2.8571429,21.321428 0.35714286,17.232143 0,16.607143 0,16 0,15.392857 0.35714286,14.767857 2.8571429,10.678571 7.0803571,8.1964285 11.303571,5.7142855 16,5.7142855 q 4.696429,0 8.919643,2.482143 4.223214,2.4821425 6.723214,6.5714285 Q 32,15.392857 32,16 Z"/>
</svg>