<svg xmlns="http://www.w3.org/2000/svg" viewBox="0 0 32 32" version="1.1">
   <path d="M 10.666667,10.666667 Q 10.666667,12 9.7333333,12.933333 8.8,13.866667 7.4666667,13.866667 6.1333333,13.866667 5.2,12.933333 4.2666667,12 4.2666667,10.666667 4.2666667,9.333333 5.2,8.4 6.1333333,7.466667 7.4666667,7.466667 8.8,7.466667 9.7333333,8.4 10.666667,9.333333 10.666667,10.666667 Z m 17.066666,6.4 0,7.466666 -23.4666663,0 0,-3.2 L 9.6,16 12.266667,18.666667 20.8,10.133333 Z m 1.6,-11.7333337 -26.6666663,0 q -0.2166667,0 -0.375,0.1583334 Q 2.1333333,5.65 2.1333333,5.8666667 l 0,20.2666663 q 0,0.216667 0.1583334,0.375 0.1583333,0.158334 0.375,0.158334 l 26.6666663,0 q 0.216667,0 0.375,-0.158334 0.158334,-0.158333 0.158334,-0.375 l 0,-20.2666663 q 0,-0.2166667 -0.158334,-0.375 Q 29.55,5.3333333 29.333333,5.3333333 Z M 32,5.8666667 32,26.133333 q 0,1.1 -0.783333,1.883334 Q 30.433333,28.8 29.333333,28.8 l -26.6666663,0 q -1.1,0 -1.88333337,-0.783333 Q 0,27.233333 0,26.133333 L 0,5.8666667 q 0,-1.1 0.78333333,-1.8833334 Q 1.5666667,3.2 2.6666667,3.2 l 26.6666663,0 q 1.1,0 1.883334,0.7833333 Q 32,4.7666667 32,5.8666667 Z"/>
</svg>