<svg xmlns="http://www.w3.org/2000/svg" viewBox="0 0 32 32" version="1.1">
   <path d="m 23.272728,27.636364 0,2.909091 q 0,0.590909 -0.43182,1.022727 Q 22.40909,32 21.818182,32 L 10.181818,32 Q 9.5909089,32 9.1590907,31.568182 8.7272725,31.136364 8.7272725,30.545455 l 0,-2.909091 q 0,-0.590909 0.4318182,-1.022728 0.4318182,-0.431818 1.0227273,-0.431818 l 1.454545,0 0,-8.727273 -1.454545,0 q -0.5909091,0 -1.0227273,-0.431818 Q 8.7272725,16.590909 8.7272725,16 l 0,-2.909091 q 0,-0.590909 0.4318182,-1.022727 0.4318182,-0.431818 1.0227273,-0.431818 l 8.727272,0 q 0.59091,0 1.022727,0.431818 0.431819,0.431818 0.431819,1.022727 l 0,13.090909 1.454546,0 q 0.590908,0 1.022726,0.431818 0.43182,0.431819 0.43182,1.022728 z m -2.909092,-26.1818185 0,4.3636363 q 0,0.5909091 -0.431819,1.0227273 Q 19.5,7.2727273 18.90909,7.2727273 l -5.818181,0 q -0.590909,0 -1.022727,-0.4318182 -0.431819,-0.4318182 -0.431819,-1.0227273 l 0,-4.3636363 q 0,-0.59090914 0.431819,-1.02272732 Q 12.5,0 13.090909,0 L 18.90909,0 Q 19.5,0 19.931817,0.43181818 20.363636,0.86363636 20.363636,1.4545455 Z"/>
</svg>