<svg xmlns="http://www.w3.org/2000/svg" viewBox="0 0 32 32" version="1.1">
   <path d="m 32,13.818182 0,4.363636 q 0,0.909091 -0.636364,1.545455 -0.636363,0.636363 -1.545454,0.636363 l -9.454546,0 0,9.454546 q 0,0.909091 -0.636363,1.545454 Q 19.090909,32 18.181818,32 l -4.363636,0 q -0.909091,0 -1.545455,-0.636364 -0.636363,-0.636363 -0.636363,-1.545454 l 0,-9.454546 -9.4545458,0 q -0.9090909,0 -1.54545456,-0.636363 Q 0,19.090909 0,18.181818 L 0,13.818182 Q 0,12.909091 0.63636364,12.272727 1.2727273,11.636364 2.1818182,11.636364 l 9.4545458,0 0,-9.4545458 q 0,-0.9090909 0.636363,-1.54545456 Q 12.909091,0 13.818182,0 l 4.363636,0 q 0.909091,0 1.545455,0.63636364 0.636363,0.63636366 0.636363,1.54545456 l 0,9.4545458 9.454546,0 q 0.909091,0 1.545454,0.636363 Q 32,12.909091 32,13.818182 Z"/>
</svg>