<svg xmlns="http://www.w3.org/2000/svg" viewBox="0 0 32 32" version="1.1">
   <path d="m 19.65119,25 0,6 q 0,0.4 -0.3,0.7 -0.3,0.3 -0.7,0.3 l -6,0 q -0.4,0 -0.7,-0.3 -0.3,-0.3 -0.3,-0.7 l 0,-6 q 0,-0.4 0.3,-0.7 0.3,-0.3 0.7,-0.3 l 6,0 q 0.4,0 0.7,0.3 0.3,0.3 0.3,0.7 z m 7.9,-15 q 0,1.35 -0.3875,2.525 -0.3875,1.175 -0.875,1.9125 -0.4875,0.7375 -1.375,1.4875 -0.8875,0.75 -1.4375,1.0875 -0.55,0.3375 -1.525,0.8875 -1.025,0.575 -1.7125,1.625 -0.6875,1.05 -0.6875,1.675 0,0.425 -0.3,0.8125 -0.3,0.3875 -0.7,0.3875 l -6,0 q -0.375,0 -0.6375,-0.4625 Q 11.65119,21.475 11.65119,21 l 0,-1.125 q 0,-2.075 1.625,-3.9125 1.625,-1.8375 3.575,-2.7125 1.475,-0.675 2.1,-1.4 0.625,-0.725 0.625,-1.9 0,-1.05 -1.1625,-1.85 -1.1625,-0.8 -2.6875,-0.8 -1.625,0 -2.7,0.725 -0.875,0.625 -2.675,2.875 -0.325,0.4 -0.7749995,0.4 -0.3,0 -0.625,-0.2 L 4.8511904,7.975 Q 4.5261905,7.725 4.4636905,7.35 q -0.0625,-0.375 0.1375,-0.7 4,-6.65 11.5999995,-6.65 2,0 4.025,0.775 2.025,0.775 3.65,2.075 1.625,1.3 2.65,3.1875 1.025,1.8875 1.025,3.9625 z"/>
</svg>