<svg xmlns="http://www.w3.org/2000/svg" viewBox="0 0 32 32" version="1.1">
   <path d="m 19.692308,12.923077 0,1.230769 q 0,0.25 -0.182693,0.432692 -0.182692,0.182693 -0.432692,0.182693 l -4.307692,0 0,4.307692 q 0,0.25 -0.182693,0.432692 -0.182692,0.182693 -0.432692,0.182693 l -1.230769,0 q -0.25,0 -0.432692,-0.182693 -0.182693,-0.182692 -0.182693,-0.432692 l 0,-4.307692 -4.307692,0 q -0.25,0 -0.4326923,-0.182693 -0.1826923,-0.182692 -0.1826923,-0.432692 l 0,-1.230769 q 0,-0.25 0.1826923,-0.432692 Q 7.75,12.307692 8,12.307692 l 4.307692,0 0,-4.307692 q 0,-0.25 0.182693,-0.4326923 0.182692,-0.1826923 0.432692,-0.1826923 l 1.230769,0 q 0.25,0 0.432692,0.1826923 Q 14.769231,7.75 14.769231,8 l 0,4.307692 4.307692,0 q 0.25,0 0.432692,0.182693 0.182693,0.182692 0.182693,0.432692 z m 2.461538,0.615385 q 0,-3.5576928 -2.528846,-6.0865389 -2.528846,-2.5288462 -6.086538,-2.5288462 -3.5576928,0 -6.0865389,2.5288462 -2.5288462,2.5288461 -2.5288462,6.0865389 0,3.557692 2.5288462,6.086538 2.5288461,2.528846 6.0865389,2.528846 3.557692,0 6.086538,-2.528846 2.528846,-2.528846 2.528846,-6.086538 z m 9.846154,16 q 0,1.01923 -0.721154,1.740384 Q 30.557692,32 29.538462,32 28.5,32 27.807692,31.269231 l -6.596154,-6.576923 q -3.442307,2.384615 -7.673076,2.384615 -2.75,0 -5.2596158,-1.067308 Q 5.7692308,24.942308 3.9519231,23.125 2.1346154,21.307692 1.0673077,18.798077 0,16.288462 0,13.538462 0,10.788462 1.0673077,8.2788462 2.1346154,5.7692308 3.9519231,3.9519231 5.7692308,2.1346154 8.2788462,1.0673077 10.788462,0 13.538462,0 q 2.75,0 5.259615,1.0673077 2.509615,1.0673077 4.326923,2.8846154 1.817308,1.8173077 2.884615,4.3269231 1.067308,2.5096158 1.067308,5.2596158 0,4.230769 -2.384615,7.673076 l 6.596154,6.596154 Q 32,28.519231 32,29.538462 Z"/>
</svg>