<svg xmlns="http://www.w3.org/2000/svg" viewBox="0 0 32 32" version="1.1">
   <path d="m 28.235294,23.529412 q 0,-0.784314 -0.549019,-1.333334 l -4.078432,-4.078431 q -0.549019,-0.54902 -1.333333,-0.54902 -0.82353,0 -1.411765,0.627451 0.05882,0.05882 0.372549,0.362746 0.313726,0.303921 0.421569,0.421568 0.107843,0.117647 0.294117,0.372549 0.186275,0.254902 0.254902,0.5 0.06863,0.245098 0.06863,0.539216 0,0.784314 -0.54902,1.333333 -0.549019,0.54902 -1.333333,0.54902 -0.294118,0 -0.539216,-0.06863 -0.245098,-0.06863 -0.5,-0.254902 -0.254902,-0.186274 -0.372549,-0.294117 -0.117647,-0.107843 -0.421568,-0.421569 -0.303922,-0.313725 -0.362746,-0.372549 -0.647058,0.607843 -0.647058,1.431373 0,0.784313 0.549019,1.333333 l 4.039216,4.058824 q 0.529412,0.529411 1.333333,0.529411 0.784314,0 1.333334,-0.509804 l 2.882353,-2.862745 q 0.549019,-0.549019 0.549019,-1.313725 z M 14.45098,9.7058824 q 0,-0.7843138 -0.549019,-1.3333334 L 9.8627451,4.3137255 Q 9.3137255,3.7647059 8.5294118,3.7647059 q -0.7647059,0 -1.3333334,0.5294117 L 4.3137255,7.1568627 q -0.5490196,0.5490197 -0.5490196,1.3137255 0,0.7843138 0.5490196,1.3333334 l 4.0784314,4.0784314 q 0.5294117,0.529412 1.3333333,0.529412 0.8235298,0 1.4117648,-0.607843 -0.05882,-0.05882 -0.372549,-0.362746 -0.313726,-0.303921 -0.421569,-0.421568 -0.107843,-0.117647 -0.294117,-0.372549 -0.1862749,-0.254902 -0.2549024,-0.5 -0.068627,-0.245098 -0.068627,-0.539216 0,-0.784314 0.5490198,-1.333333 0.549019,-0.5490198 1.333333,-0.5490198 0.294118,0 0.539216,0.068627 0.245098,0.068627 0.5,0.2549024 0.254902,0.186274 0.372549,0.294117 0.117647,0.107843 0.421568,0.421569 0.303922,0.313725 0.362746,0.372549 0.647058,-0.607843 0.647058,-1.4313726 z M 32,23.529412 q 0,2.352941 -1.666667,3.980392 L 27.45098,30.372549 Q 25.823529,32 23.470588,32 q -2.372549,0 -4,-1.666667 L 15.431373,26.27451 q -1.627451,-1.627451 -1.627451,-3.980392 0,-2.411765 1.72549,-4.09804 l -1.72549,-1.72549 q -1.686275,1.72549 -4.0784318,1.72549 -2.3529412,0 -4,-1.647058 L 1.6470588,12.470588 Q 0,10.823529 0,8.4705882 0,6.1176471 1.6666667,4.4901961 L 4.5490196,1.627451 Q 6.1764706,0 8.5294118,0 10.901961,0 12.529412,1.6666667 l 4.039215,4.0588235 q 1.627451,1.627451 1.627451,3.9803922 0,2.4117646 -1.72549,4.0980396 l 1.72549,1.72549 q 1.686275,-1.72549 4.078432,-1.72549 2.352941,0 4,1.647058 l 4.078431,4.078432 Q 32,21.176471 32,23.529412 Z"/>
</svg>