<svg xmlns="http://www.w3.org/2000/svg" viewBox="0 0 32 32" version="1.1">
   <path d="m 32,13.711539 q 0,3.107143 -2.142857,5.741071 -2.142857,2.633929 -5.821429,4.160715 Q 20.357143,25.14011 16,25.14011 q -1.25,0 -2.589286,-0.142857 -3.535714,3.125 -8.2142854,4.321429 -0.875,0.25 -2.0357143,0.392857 Q 2.8571429,29.747253 2.6160714,29.550825 2.375,29.354396 2.3035714,29.032967 l 0,-0.01786 Q 2.25,28.943682 2.2946429,28.800825 q 0.044643,-0.142858 0.035714,-0.178572 -0.00893,-0.03571 0.080357,-0.169643 l 0.1071428,-0.160714 0.125,-0.151786 0.1428572,-0.160714 q 0.125,-0.142857 0.5535714,-0.616071 0.4285714,-0.473215 0.6160714,-0.678572 0.1875,-0.205357 0.5535715,-0.705357 0.3660714,-0.5 0.5803571,-0.910714 Q 5.3035714,24.657967 5.5714286,24.01511 5.8392857,23.372253 6.0357143,22.657967 3.2321429,21.068682 1.6160714,18.729396 0,16.39011 0,13.711539 0,11.39011 1.2678571,9.2740387 2.5357143,7.1579669 4.6785714,5.6222526 6.8214286,4.0865384 9.7857143,3.1847526 12.75,2.2829669 16,2.2829669 q 4.357143,0 8.035714,1.5267857 3.678572,1.5267858 5.821429,4.1607141 Q 32,10.604396 32,13.711539 Z"/>
</svg>