<svg xmlns="http://www.w3.org/2000/svg" viewBox="0 0 32 32" version="1.1">
   <path d="m 16,29.714286 q -0.464286,0 -0.785714,-0.321429 l -11.1428574,-10.75 Q 3.8928572,18.5 3.5803571,18.178572 3.2678572,17.857143 2.5892857,17.008928 1.9107143,16.160714 1.375,15.267857 0.83928572,14.375 0.41964286,13.107143 0,11.839286 0,10.642857 0,6.7142856 2.2678571,4.4999998 4.5357144,2.2857141 8.5357143,2.2857141 q 1.1071429,0 2.2589287,0.3839286 1.151786,0.3839286 2.142857,1.0357143 0.991072,0.6517857 1.705357,1.2232143 Q 15.357143,5.4999999 16,6.142857 16.642858,5.4999999 17.357143,4.9285713 18.071428,4.3571427 19.0625,3.705357 q 0.991071,-0.6517857 2.142857,-1.0357143 1.151786,-0.3839286 2.258929,-0.3839286 4,0 6.267857,2.2142857 Q 32,6.7142856 32,10.642857 q 0,3.946429 -4.089285,8.035715 L 16.785714,29.392857 Q 16.464286,29.714286 16,29.714286 Z"/>
</svg>