<svg xmlns="http://www.w3.org/2000/svg" viewBox="0 0 32 32" version="1.1">
   <path d="m 32,11.535715 0,14.178571 q 0,1.178572 -0.839286,2.017857 -0.839285,0.839286 -2.017857,0.839286 l -26.2857141,0 q -1.1785715,0 -2.01785719,-0.839286 Q 0,26.892858 0,25.714286 L 0,11.535715 q 0.78571429,0.875 1.8035714,1.553571 6.4642857,4.392857 8.8749996,6.160714 1.017858,0.75 1.651786,1.169643 0.633929,0.419643 1.6875,0.857143 1.053572,0.4375 1.964286,0.4375 l 0.03571,0 q 0.910714,0 1.964286,-0.4375 1.053571,-0.4375 1.6875,-0.857143 Q 20.303567,20 21.321425,19.25 24.357139,17.053572 30.214282,13.089286 31.232143,12.392858 32,11.535715 Z m 0,-5.2500008 q 0,1.4107143 -0.875,2.6964283 -0.875,1.2857155 -2.178571,2.1964295 -6.714286,4.660714 -8.357143,5.803571 -0.178572,0.125 -0.758929,0.544643 -0.580357,0.419643 -0.964286,0.678572 -0.383928,0.258928 -0.928571,0.580357 -0.544643,0.321428 -1.026786,0.482143 -0.482143,0.160714 -0.892857,0.160714 l -0.03571,0 q -0.410714,0 -0.892857,-0.160714 Q 14.607143,19.107143 14.0625,18.785715 13.517857,18.464286 13.133929,18.205358 12.75,17.946429 12.169643,17.526786 11.589286,17.107143 11.410714,16.982143 9.7857143,15.839286 6.7321429,13.723215 3.6785714,11.607143 3.0714286,11.178572 1.9642857,10.428572 0.98214286,9.1160716 0,7.8035716 0,6.6785716 0,5.2857142 0.74107143,4.3571429 1.4821429,3.4285715 2.8571429,3.4285715 l 26.2857141,0 q 1.160714,0 2.008929,0.8392857 Q 32,5.1071429 32,6.2857142 Z"/>
</svg>